<?xml version="1.0" standalone="no"?>
<!DOCTYPE svg PUBLIC "-//W3C//DTD SVG 20010904//EN"
 "http://www.w3.org/TR/2001/REC-SVG-20010904/DTD/svg10.dtd">
<svg version="1.0" xmlns="http://www.w3.org/2000/svg"
 width="600.000000pt" height="600.000000pt" viewBox="0 0 600.000000 600.000000"
 preserveAspectRatio="xMidYMid meet">

<g transform="translate(0.000000,600.000000) scale(0.100000,-0.100000)"
fill="#000000" stroke="none">
<path d="M2135 5114 c-305 -54 -599 -220 -797 -449 -165 -190 -265 -393 -320
-649 -30 -143 -30 -388 1 -533 61 -289 190 -524 402 -729 183 -176 396 -291
649 -350 130 -31 345 -42 473 -25 192 26 391 94 540 186 l72 44 27 -27 c15
-15 92 -99 171 -186 l144 -160 -24 -34 c-25 -38 -29 -75 -10 -108 12 -23 1020
-1148 1070 -1196 23 -22 39 -28 72 -28 51 0 53 1 247 178 155 140 172 165 150
222 -5 14 -99 124 -208 246 -110 121 -353 391 -541 601 -188 209 -349 383
-358 387 -30 11 -76 6 -106 -11 -15 -9 -30 -15 -32 -12 -5 7 -267 301 -300
336 l-29 31 64 90 c324 450 353 1028 78 1508 -66 114 -129 195 -233 297 -195
192 -457 325 -731 372 -111 19 -362 18 -471 -1z m355 -214 c266 -28 492 -134
685 -321 221 -214 337 -472 351 -779 27 -579 -382 -1086 -957 -1186 -70 -12
-130 -15 -239 -11 -181 6 -298 35 -456 112 -644 314 -851 1109 -442 1702 62
89 210 233 305 296 149 99 339 168 510 186 111 12 136 12 243 1z"/>
</g>
</svg>
